# xmcd
#
# Track frame offsets: 
#        150
#        31643
#        55035
#        105674
#        129417
#        144655
#        165602
#        182850
#        212138
#        236875
#        257595
#        286079
#
# Disc length: 4451 seconds
#
# Revision: 4
# Processed by: cddbd v1.5.2PL0 Copyright (c) Steve Scherf et al.
# Submitted via: ExactAudioCopy v1.0b2
#
DISCID=a611610c
DTITLE=Jason Ricci and New Blood - Rocket Number 9
DYEAR=2007
DGENRE=Blues
TTITLE0=The Rocker
TTITLE1=I'm A New Man
TTITLE2=Loving Eyes
TTITLE3=Dodecahedron
TTITLE4=Mr.Satan
TTITLE5=Deliver Us
TTITLE6=The Blow Zone Layer
TTITLE7=The Way I Hurt Myself
TTITLE8=The Eternal Is
TTITLE9=Snowflakes and Horses
TTITLE10=Sonja
TTITLE11=Rocket Number 9
EXTD=YEAR: 2007
EXTT0=
EXTT1=
EXTT2=
EXTT3=
EXTT4=
EXTT5=
EXTT6=
EXTT7=
EXTT8=
EXTT9=
EXTT10=
EXTT11=
PLAYORDER=
